<?xml version="1.0" encoding="UTF-8"?>
<svg xmlns="http://www.w3.org/2000/svg" xmlns:xlink="http://www.w3.org/1999/xlink" width="px" height="256px" viewBox="0 0 256 256" version="1.1">
<g id="surface1">
<path style=" stroke:none;fill-rule:nonzero;fill:rgb(0%,0%,0%);fill-opacity:1;" d="M 248.6875 92.550781 L 7.027344 92.550781 C 3.925781 92.550781 1.40625 90.03125 1.40625 86.929688 L 1.40625 62.445312 C 1.40625 49.441406 11.988281 38.859375 24.992188 38.859375 L 230.71875 38.859375 C 243.722656 38.859375 254.304688 49.441406 254.304688 62.445312 L 254.304688 86.929688 C 254.304688 90.035156 251.789062 92.550781 248.6875 92.550781 Z M 12.648438 81.308594 L 243.066406 81.308594 L 243.066406 62.445312 C 243.066406 55.636719 237.527344 50.097656 230.71875 50.097656 L 24.992188 50.097656 C 18.183594 50.097656 12.648438 55.636719 12.648438 62.445312 Z M 12.648438 81.308594 "/>
<path style=" stroke:none;fill-rule:nonzero;fill:rgb(0%,0%,0%);fill-opacity:1;" d="M 230.71875 234.753906 L 24.992188 234.753906 C 11.988281 234.753906 1.40625 224.171875 1.40625 211.164062 L 1.40625 86.929688 C 1.40625 83.828125 3.925781 81.308594 7.027344 81.308594 L 248.6875 81.308594 C 251.789062 81.308594 254.304688 83.828125 254.304688 86.929688 L 254.304688 211.164062 C 254.304688 224.171875 243.722656 234.753906 230.71875 234.753906 Z M 12.648438 92.550781 L 12.648438 211.164062 C 12.648438 217.972656 18.183594 223.515625 24.992188 223.515625 L 230.71875 223.515625 C 237.527344 223.515625 243.066406 217.972656 243.066406 211.164062 L 243.066406 92.550781 Z M 12.648438 92.550781 "/>
<path style=" stroke:none;fill-rule:nonzero;fill:rgb(0%,0%,0%);fill-opacity:1;" d="M 58.027344 68 C 54.925781 68 52.40625 65.484375 52.40625 62.378906 L 52.40625 26.578125 C 52.40625 23.476562 54.925781 20.957031 58.027344 20.957031 C 61.128906 20.957031 63.648438 23.476562 63.648438 26.578125 L 63.648438 62.378906 C 63.648438 65.484375 61.132812 68 58.027344 68 Z M 58.027344 68 "/>
<path style=" stroke:none;fill-rule:nonzero;fill:rgb(0%,0%,0%);fill-opacity:1;" d="M 197.683594 68 C 194.582031 68 192.066406 65.484375 192.066406 62.378906 L 192.066406 26.578125 C 192.066406 23.476562 194.582031 20.957031 197.683594 20.957031 C 200.789062 20.957031 203.304688 23.476562 203.304688 26.578125 L 203.304688 62.378906 C 203.304688 65.484375 200.789062 68 197.683594 68 Z M 197.683594 68 "/>
<path style=" stroke:none;fill-rule:nonzero;fill:rgb(0%,0%,0%);fill-opacity:1;" d="M 46.742188 127.96875 L 42.714844 127.96875 C 40.722656 127.96875 39.109375 126.351562 39.109375 124.359375 L 39.109375 120.335938 C 39.109375 118.34375 40.722656 116.730469 42.714844 116.730469 L 46.742188 116.730469 C 48.734375 116.730469 50.347656 118.34375 50.347656 120.335938 L 50.347656 124.359375 C 50.347656 126.351562 48.734375 127.96875 46.742188 127.96875 Z M 46.742188 127.96875 "/>
<path style=" stroke:none;fill-rule:nonzero;fill:rgb(0%,0%,0%);fill-opacity:1;" d="M 79.992188 127.96875 L 75.96875 127.96875 C 73.976562 127.96875 72.359375 126.351562 72.359375 124.359375 L 72.359375 120.335938 C 72.359375 118.34375 73.976562 116.730469 75.96875 116.730469 L 79.992188 116.730469 C 81.984375 116.730469 83.597656 118.34375 83.597656 120.335938 L 83.597656 124.359375 C 83.597656 126.351562 81.984375 127.96875 79.992188 127.96875 Z M 79.992188 127.96875 "/>
<path style=" stroke:none;fill-rule:nonzero;fill:rgb(0%,0%,0%);fill-opacity:1;" d="M 113.246094 127.96875 L 109.21875 127.96875 C 107.226562 127.96875 105.613281 126.351562 105.613281 124.359375 L 105.613281 120.335938 C 105.613281 118.34375 107.226562 116.730469 109.21875 116.730469 L 113.246094 116.730469 C 115.238281 116.730469 116.851562 118.34375 116.851562 120.335938 L 116.851562 124.359375 C 116.851562 126.351562 115.238281 127.96875 113.246094 127.96875 Z M 113.246094 127.96875 "/>
<path style=" stroke:none;fill-rule:nonzero;fill:rgb(0%,0%,0%);fill-opacity:1;" d="M 146.496094 127.96875 L 142.46875 127.96875 C 140.476562 127.96875 138.859375 126.351562 138.859375 124.359375 L 138.859375 120.335938 C 138.859375 118.34375 140.476562 116.730469 142.46875 116.730469 L 146.492188 116.730469 C 148.484375 116.730469 150.101562 118.34375 150.101562 120.335938 L 150.101562 124.359375 C 150.101562 126.351562 148.488281 127.96875 146.496094 127.96875 Z M 146.496094 127.96875 "/>
<path style=" stroke:none;fill-rule:nonzero;fill:rgb(0%,0%,0%);fill-opacity:1;" d="M 179.746094 127.96875 L 175.722656 127.96875 C 173.730469 127.96875 172.113281 126.351562 172.113281 124.359375 L 172.113281 120.335938 C 172.113281 118.34375 173.730469 116.730469 175.722656 116.730469 L 179.746094 116.730469 C 181.738281 116.730469 183.355469 118.34375 183.355469 120.335938 L 183.355469 124.359375 C 183.355469 126.351562 181.738281 127.96875 179.746094 127.96875 Z M 179.746094 127.96875 "/>
<path style=" stroke:none;fill-rule:nonzero;fill:rgb(0%,0%,0%);fill-opacity:1;" d="M 212.996094 127.96875 L 208.972656 127.96875 C 206.980469 127.96875 205.363281 126.351562 205.363281 124.359375 L 205.363281 120.335938 C 205.363281 118.34375 206.980469 116.730469 208.972656 116.730469 L 212.996094 116.730469 C 214.988281 116.730469 216.605469 118.34375 216.605469 120.335938 L 216.605469 124.359375 C 216.605469 126.351562 214.988281 127.96875 212.996094 127.96875 Z M 212.996094 127.96875 "/>
<path style=" stroke:none;fill-rule:nonzero;fill:rgb(0%,0%,0%);fill-opacity:1;" d="M 46.742188 161.21875 L 42.714844 161.21875 C 40.722656 161.21875 39.109375 159.605469 39.109375 157.613281 L 39.109375 153.585938 C 39.109375 151.59375 40.722656 149.980469 42.714844 149.980469 L 46.742188 149.980469 C 48.734375 149.980469 50.347656 151.59375 50.347656 153.585938 L 50.347656 157.613281 C 50.347656 159.605469 48.734375 161.21875 46.742188 161.21875 Z M 46.742188 161.21875 "/>
<path style=" stroke:none;fill-rule:nonzero;fill:rgb(0%,0%,0%);fill-opacity:1;" d="M 79.992188 161.21875 L 75.96875 161.21875 C 73.976562 161.21875 72.359375 159.605469 72.359375 157.613281 L 72.359375 153.585938 C 72.359375 151.59375 73.976562 149.980469 75.96875 149.980469 L 79.992188 149.980469 C 81.984375 149.980469 83.597656 151.59375 83.597656 153.585938 L 83.597656 157.613281 C 83.597656 159.605469 81.984375 161.21875 79.992188 161.21875 Z M 79.992188 161.21875 "/>
<path style=" stroke:none;fill-rule:nonzero;fill:rgb(0%,0%,0%);fill-opacity:1;" d="M 113.246094 161.21875 L 109.21875 161.21875 C 107.226562 161.21875 105.613281 159.605469 105.613281 157.613281 L 105.613281 153.585938 C 105.613281 151.59375 107.226562 149.980469 109.21875 149.980469 L 113.246094 149.980469 C 115.238281 149.980469 116.851562 151.59375 116.851562 153.585938 L 116.851562 157.613281 C 116.851562 159.605469 115.238281 161.21875 113.246094 161.21875 Z M 113.246094 161.21875 "/>
<path style=" stroke:none;fill-rule:nonzero;fill:rgb(0%,0%,0%);fill-opacity:1;" d="M 146.496094 161.21875 L 142.46875 161.21875 C 140.476562 161.21875 138.859375 159.605469 138.859375 157.613281 L 138.859375 153.585938 C 138.859375 151.59375 140.476562 149.980469 142.46875 149.980469 L 146.492188 149.980469 C 148.484375 149.980469 150.101562 151.59375 150.101562 153.585938 L 150.101562 157.613281 C 150.101562 159.605469 148.488281 161.21875 146.496094 161.21875 Z M 146.496094 161.21875 "/>
<path style=" stroke:none;fill-rule:nonzero;fill:rgb(0%,0%,0%);fill-opacity:1;" d="M 179.746094 161.21875 L 175.722656 161.21875 C 173.730469 161.21875 172.113281 159.605469 172.113281 157.613281 L 172.113281 153.585938 C 172.113281 151.59375 173.730469 149.980469 175.722656 149.980469 L 179.746094 149.980469 C 181.738281 149.980469 183.355469 151.59375 183.355469 153.585938 L 183.355469 157.613281 C 183.355469 159.605469 181.738281 161.21875 179.746094 161.21875 Z M 179.746094 161.21875 "/>
<path style=" stroke:none;fill-rule:nonzero;fill:rgb(0%,0%,0%);fill-opacity:1;" d="M 212.996094 161.21875 L 208.972656 161.21875 C 206.980469 161.21875 205.363281 159.605469 205.363281 157.613281 L 205.363281 153.585938 C 205.363281 151.59375 206.980469 149.980469 208.972656 149.980469 L 212.996094 149.980469 C 214.988281 149.980469 216.605469 151.59375 216.605469 153.585938 L 216.605469 157.613281 C 216.605469 159.605469 214.988281 161.21875 212.996094 161.21875 Z M 212.996094 161.21875 "/>
<path style=" stroke:none;fill-rule:nonzero;fill:rgb(0%,0%,0%);fill-opacity:1;" d="M 46.742188 194.46875 L 42.714844 194.46875 C 40.722656 194.46875 39.109375 192.855469 39.109375 190.863281 L 39.109375 186.839844 C 39.109375 184.847656 40.722656 183.230469 42.714844 183.230469 L 46.742188 183.230469 C 48.734375 183.230469 50.347656 184.847656 50.347656 186.839844 L 50.347656 190.863281 C 50.347656 192.859375 48.734375 194.46875 46.742188 194.46875 Z M 46.742188 194.46875 "/>
<path style=" stroke:none;fill-rule:nonzero;fill:rgb(0%,0%,0%);fill-opacity:1;" d="M 79.992188 194.46875 L 75.96875 194.46875 C 73.976562 194.46875 72.359375 192.855469 72.359375 190.863281 L 72.359375 186.839844 C 72.359375 184.847656 73.976562 183.230469 75.96875 183.230469 L 79.992188 183.230469 C 81.984375 183.230469 83.597656 184.847656 83.597656 186.839844 L 83.597656 190.863281 C 83.597656 192.859375 81.984375 194.46875 79.992188 194.46875 Z M 79.992188 194.46875 "/>
<path style=" stroke:none;fill-rule:nonzero;fill:rgb(0%,0%,0%);fill-opacity:1;" d="M 113.246094 194.46875 L 109.21875 194.46875 C 107.226562 194.46875 105.613281 192.855469 105.613281 190.863281 L 105.613281 186.839844 C 105.613281 184.847656 107.226562 183.230469 109.21875 183.230469 L 113.246094 183.230469 C 115.238281 183.230469 116.851562 184.847656 116.851562 186.839844 L 116.851562 190.863281 C 116.851562 192.859375 115.238281 194.46875 113.246094 194.46875 Z M 113.246094 194.46875 "/>
<path style=" stroke:none;fill-rule:nonzero;fill:rgb(0%,0%,0%);fill-opacity:1;" d="M 146.496094 194.46875 L 142.46875 194.46875 C 140.476562 194.46875 138.859375 192.855469 138.859375 190.863281 L 138.859375 186.839844 C 138.859375 184.847656 140.476562 183.230469 142.46875 183.230469 L 146.492188 183.230469 C 148.484375 183.230469 150.101562 184.847656 150.101562 186.839844 L 150.101562 190.863281 C 150.101562 192.859375 148.488281 194.46875 146.496094 194.46875 Z M 146.496094 194.46875 "/>
<path style=" stroke:none;fill-rule:nonzero;fill:rgb(0%,0%,0%);fill-opacity:1;" d="M 179.746094 194.46875 L 175.722656 194.46875 C 173.730469 194.46875 172.113281 192.855469 172.113281 190.863281 L 172.113281 186.839844 C 172.113281 184.847656 173.730469 183.230469 175.722656 183.230469 L 179.746094 183.230469 C 181.738281 183.230469 183.355469 184.847656 183.355469 186.839844 L 183.355469 190.863281 C 183.355469 192.859375 181.738281 194.46875 179.746094 194.46875 Z M 179.746094 194.46875 "/>
</g>
</svg>
