<?xml version="1.0" encoding="UTF-8"?>
<svg xmlns="http://www.w3.org/2000/svg" xmlns:xlink="http://www.w3.org/1999/xlink" width="px" height="256px" viewBox="0 0 256 256" version="1.1">
<g id="surface1">
<path style=" stroke:none;fill-rule:nonzero;fill:rgb(0%,0%,0%);fill-opacity:1;" d="M 210.820312 217.527344 C 208.710938 182.398438 184.746094 153.171875 152.34375 143.242188 C 171.96875 134.066406 185.601562 114.132812 185.601562 91.023438 C 185.601562 59.210938 159.808594 33.421875 128 33.421875 C 96.191406 33.421875 70.398438 59.210938 70.398438 91.023438 C 70.398438 114.132812 84.03125 134.066406 103.679688 143.242188 C 71.277344 153.171875 47.3125 182.398438 45.203125 217.527344 C 45.035156 220.253906 47.195312 222.578125 49.945312 222.578125 C 52.433594 222.578125 54.519531 220.632812 54.683594 218.144531 C 56.9375 179.625 88.914062 149.097656 128 149.097656 C 167.085938 149.097656 199.0625 179.625 201.339844 218.144531 C 201.480469 220.632812 203.566406 222.578125 206.078125 222.578125 C 208.828125 222.578125 210.988281 220.253906 210.820312 217.527344 Z M 79.882812 91.023438 C 79.882812 64.449219 101.429688 42.902344 128 42.902344 C 154.570312 42.902344 176.117188 64.449219 176.117188 91.023438 C 176.117188 117.59375 154.570312 139.140625 128 139.140625 C 101.429688 139.140625 79.882812 117.59375 79.882812 91.023438 Z M 79.882812 91.023438 "/>
</g>
</svg>
